{"title":"Resident Evil Retribution 2012 BluRay 1080p - alrmothe","uid":7967634,"size":6212462384,"categoryP":"video","categoryS":"hd___movies","magnet":"?xt=urn:btih:49e422b98c4a34437db08ab547d1393898374ab7&amp;dn=Resident+Evil+Retribution+2012+BluRay+1080p+-+alrmothe&amp;tr=udp%3A%2F%2Ftracker.openbittorrent.com%3A80&amp;tr=udp%3A%2F%2Fopen.demonii.com%3A1337&amp;tr=udp%3A%2F%2Ftracker.coppersurfer.tk%3A6969&amp;tr=udp%3A%2F%2Fexodus.desync.com%3A6969","seeders":0,"leechers":1,"uploader":".alrmothe","files":25,"time":1356722661,"description":"***********************************************************\n\n\nResident Evil Retribution 2012 BluRay 1080p - alrmothe\n\n\n***********************************************************\n\nTiTLE:Resident Evil Retribution \nYEAR:2012\nGENRE : Action | Horror | Sci-Fi\niMDB URL : http://www.imdb.com/title/tt1855325/\nSIZE :  5.77 GB\nFormat : mkv \nSub:English, English (SDH), Arabic, Bulgarian, \nCroatian, Czech\nEstonian, French, Greek, Hebrew, \nHungarian, Icelandic, Lithuanian,\nPolish, Portuguese, Romanian, \nRussian, Serbian, Slovak, Slovenian,\nSpanish, Turkish\n \n****************************\n\nVideo\nFormat: AVC\nFormat/Info: Advanced Video Codec\nFormat profile: &lt;a class=&quot;__cf_email__&quot; href=&quot;/cdn-cgi/l/email-protection&quot; data-cfemail=&quot;8ec6e7e9e6cec2baa0bf&quot;&gt;[email&amp;#160;protected]&lt;/a&gt;&lt;script cf-hash='f9e31' type=&quot;text/javascript&quot;&gt;\n/* &lt;![CDATA[ */!function(){try{var t=&quot;currentScript&quot;in document?document.currentScript:function(){for(var t=document.getElementsByTagName(&quot;script&quot;),e=t.length;e--;)if(t[e].getAttribute(&quot;cf-hash&quot;))return t[e]}();if(t&amp;&amp;t.previousSibling){var e,r,n,i,c=t.previousSibling,a=c.getAttribute(&quot;data-cfemail&quot;);if(a){for(e=&quot;&quot;,r=parseInt(a.substr(0,2),16),n=2;a.length-n;n+=2)i=parseInt(a.substr(n,2),16)^r,e+=String.fromCharCode(i);e=document.createTextNode(e),c.parentNode.replaceChild(e,c)}}}catch(u){}}();/* ]]&gt; */&lt;/script&gt;\nFormat settings, CABAC: Yes\nFormat settings, ReFrames: 5 frames\nMuxing mode: Header stripping\nCodec ID: V_MPEG4/ISO/AVC\nDuration: 1h 35mn\nBit rate: 7 010 Kbps\nWidth: 1 920 pixels\nHeight: 800 pixels\nDisplay aspect ratio: 2.40:1\nFrame rate mode: Constant\nFrame rate: 23.976 fps\nColor space: YUV\nChroma subsampling: 4:2:0\nBit depth : 8 bits\nScan type : Progressive\nBits/(Pixel*Frame): 0.190\nStream size: 4.57 GiB (80%)\n\nAudio: \nFormat: DTS\nFormat/Info: Digital Theater Systems\nMode: 16\nFormat settings, Endianness: Big\nMuxing mode: Header stripping\nCodec ID: A_DTS\nDuration: 1h 35mn\nBit rate mode: Constant\nBit rate: 1 509 Kbps\nChannel(s): 6 channels\nChannel positions: Front: L C R, Side: L R, LFE\nSampling rate: 48.0 KHz\nBit depth : 24 bits\nCompression mode: Lossy\nStream size: 1.01 GiB (18%)\nTitle: DTS 6ch\nLanguage: English\n***************************************\n\nScreenshots\n\n &lt;a href=&quot;\nhttp://img690.imageshack.us/img690/3032/76621643.png&quot; rel=&quot;nofollow&quot; target=&quot;_NEW&quot;&gt;\nhttp://img690.imageshack.us/img690/3032/76621643.png&lt;/a&gt;\n &lt;a href=&quot;\nhttp://img9.imageshack.us/img9/8770/92947515.png&quot; rel=&quot;nofollow&quot; target=&quot;_NEW&quot;&gt;\nhttp://img9.imageshack.us/img9/8770/92947515.png&lt;/a&gt;\n &lt;a href=&quot;\nhttp://img51.imageshack.us/img51/2943/22859691.png&quot; rel=&quot;nofollow&quot; target=&quot;_NEW&quot;&gt;\nhttp://img51.imageshack.us/img51/2943/22859691.png&lt;/a&gt;\n &lt;a href=&quot;\nhttp://img29.imageshack.us/img29/5859/42402886.png&quot; rel=&quot;nofollow&quot; target=&quot;_NEW&quot;&gt;\nhttp://img29.imageshack.us/img29/5859/42402886.png&lt;/a&gt;\n\n","torrent":{"xt":"urn:btih:49e422b98c4a34437db08ab547d1393898374ab7","amp;dn":"Resident+Evil+Retribution+2012+BluRay+1080p+-+alrmothe","amp;tr":["udp%3A%2F%2Ftracker.openbittorrent.com%3A80","udp%3A%2F%2Fopen.demonii.com%3A1337","udp%3A%2F%2Ftracker.coppersurfer.tk%3A6969","udp%3A%2F%2Fexodus.desync.com%3A6969"],"infoHash":"49e422b98c4a34437db08ab547d1393898374ab7","infoHashBuffer":{"type":"Buffer","data":[73,228,34,185,140,74,52,67,125,176,138,181,71,209,57,56,152,55,74,183]},"announce":[],"urlList":[]}}